HIERARCHY
ROOT pelvis
{
  OFFSET 0 100 0
  CHANNELS 6 Xposition Yposition Zposition Zrotation Xrotation Yrotation
  JOINT pelvis_right_femur
  {
    OFFSET -10.78128 -3.44521 -0.5502486
    CHANNELS 3 Zrotation Xrotation Yrotation
    JOINT right_femur_tibia
    {
      OFFSET -0.8047443 -44.0398 -0.1307829
      CHANNELS 3 Zrotation Xrotation Yrotation
      JOINT right_tibia_foot
      {
        OFFSET 3.006224 -47.83518 -5
        CHANNELS 3 Zrotation Xrotation Yrotation
        End Site
        {
          OFFSET 0 -5 15
        }
      }
    }
  }
  JOINT pelvis_left_femur
  {
    OFFSET 10.78128 -3.44521 -0.5502486
    CHANNELS 3 Zrotation Xrotation Yrotation
    JOINT left_femur_tibia
    {
      OFFSET 0.8047443 -44.0398 -0.1307829
      CHANNELS 3 Zrotation Xrotation Yrotation
      JOINT left_tibia_foot
      {
        OFFSET -4.370144 -48.10324 -4.275266
        CHANNELS 3 Zrotation Xrotation Yrotation
        End Site
        {
          OFFSET 0 -5 15
        }
      }
    }
  }
  JOINT pelvis_spine1
  {
    OFFSET 0 6.468898 -3.129235
    CHANNELS 3 Zrotation Xrotation Yrotation
    JOINT spine1
    {
      OFFSET 0 23.15396 4.99043
      CHANNELS 3 Zrotation Xrotation Yrotation
      JOINT spine2
      {
        OFFSET 0 20.79997 -5.064912
        CHANNELS 3 Zrotation Xrotation Yrotation
        JOINT neck
        {
          OFFSET 0 14.38658 9.616178
          CHANNELS 3 Zrotation Xrotation Yrotation
          End Site
          {
            OFFSET 0 20 0
          }
        }
      }
      JOINT right_manubrium
      {
        OFFSET -5.722621 16.35077 3.967754
        CHANNELS 3 Zrotation Xrotation Yrotation
        JOINT right_clavicle
        {
          OFFSET -13.16364 1.694482 -4.693211
          CHANNELS 3 Zrotation Xrotation Yrotation
          JOINT right_humerus
          {
            OFFSET -28.5034 -0.3100689 -2.792744
            CHANNELS 3 Zrotation Xrotation Yrotation
            JOINT right_radius
            {
              OFFSET -25.15693 0.02248979 -1.271978
              CHANNELS 3 Zrotation Xrotation Yrotation
              End Site
              {
                OFFSET -15 0 0
              }
            }
          }
        }
      }
      JOINT left_manubrium
      {
        OFFSET 5.722621 16.35077 3.967754
        CHANNELS 3 Zrotation Xrotation Yrotation
        JOINT left_clavicle
        {
          OFFSET 13.16364 1.694482 -4.693211
          CHANNELS 3 Zrotation Xrotation Yrotation
          JOINT left_humerus
          {
            OFFSET 29.39168 -1.063119 -2.237045
            CHANNELS 3 Zrotation Xrotation Yrotation
            JOINT left_radius
            {
              OFFSET 24.59957 -0.9528479 0.9047498
              CHANNELS 3 Zrotation Xrotation Yrotation
              End Site
              {
                OFFSET 15 -0 -0
              }
            }
          }
        }
      }
    }
  }
}
MOTION
Frames: 18
Frame Time: 0.0416666666667
25.64169 103.2431 248.0455 1.105541 -6.831242 3.643463 2.883696 12.26665 4.765888 -6.867035e-11 28.66539 -1.44241e-12 -3.600231 -10.38435 -2.5362 -1.865492 -17.54397 -8.524632 -1.433329e-10 23.73488 -1.832613e-10 -4.410904 -8.193416 20.02969 -1.107212 -0.5342645 7.305584 -0.8888557 10.58875 -3.86769 1.950211 22.56557 4.975815 2.512696 -18.41527 6.496105 1.382655 -22.20229 11.27729 84.0547 25.2687 -8.905778 -8.292009e-12 3.884643e-12 21.98792 -20.66505 10.78483 12.18563 4.251292 -17.4069 -3.43491 -95.46543 25.17306 27.3596 -9.885877e-12 -1.262179e-11 -11.0315 -1.531739 10.72086 15.82603
26.64366 103.3179 253.3786 1.030634 -6.615213 3.436218 2.994995 9.771838 4.677109 -6.00683e-11 28.53318 -1.334176e-12 -3.783869 -9.970355 -2.746986 -2.23502 -15.3087 -9.026207 -1.254254e-10 23.71183 -1.604381e-10 -4.237367 -8.93366 19.87531 -1.157946 -0.5875318 7.031567 -0.7045524 10.58534 -4.187511 1.923089 22.65688 5.137009 2.593108 -18.71035 6.64385 1.52251 -21.89296 11.31654 84.964 25.62423 -10.05121 -7.25584e-12 3.425597e-12 21.18154 -20.29871 10.81191 11.84758 4.416354 -17.86008 -3.519391 -95.40986 25.35898 26.55584 -8.730188e-12 -1.097032e-11 -12.07088 -1.204621 10.98218 15.5002
27.53957 103.3911 258.6607 0.9384541 -6.284616 3.27725 3.139626 6.182248 4.548875 -4.761724e-11 28.26118 -1.175545e-12 -4.031089 -9.349698 -3.036044 -2.714345 -12.07091 -9.686193 -9.955181e-11 23.60968 -1.274274e-10 -3.985408 -9.963406 19.60171 -1.227542 -0.6612209 6.619914 -0.4407872 10.54788 -4.631616 1.881249 22.72073 5.35238 2.698029 -19.07704 6.834144 1.709913 -21.38818 11.33505 86.01048 26.0681 -11.61104 -5.765009e-12 2.737705e-12 19.96887 -19.71255 10.82159 11.32446 4.639692 -18.45469 -3.6295 -95.02469 25.6283 25.27838 -7.003209e-12 -8.623661e-12 -13.51897 -0.7266848 11.32059 14.98614
28.31001 103.4579 263.8516 0.833045 -5.845187 3.180176 3.293214 1.739885 4.386024 -3.210143e-11 27.7867 -9.267484e-13 -4.308675 -8.53982 -3.370182 -3.23145 -8.029284 -10.41005 -6.727175e-11 23.36699 -8.623678e-11 -3.671387 -11.17892 19.17534 -1.307921 -0.7474731 6.081163 -0.1173679 10.44692 -5.153709 1.825486 22.68593 5.590636 2.808644 -19.43347 7.03131 1.919423 -20.66304 11.29421 86.85368 26.52537 -13.38514 -3.921921e-12 1.837984e-12 18.37971 -18.88835 10.78224 10.61599 4.892558 -19.09359 -3.747345 -94.02998 25.94841 23.48519 -4.765864e-12 -5.766141e-12 -15.23117 -0.1233535 11.67526 14.27443
28.95838 103.5104 268.9464 0.7329484 -5.39344 3.149745 3.439917 -2.800379 4.235187 -1.629445e-11 27.29449 -5.247764e-13 -4.585859 -7.708579 -3.706079 -3.705871 -3.893281 -11.1139 -3.412639e-11 23.1128 -4.403718e-11 -3.358438 -12.42104 18.7416 -1.390588 -0.8346341 5.528919 0.2118953 10.33819 -5.685073 1.768502 22.64419 5.832513 2.922126 -19.79223 7.231864 2.13227 -19.91687 11.24686 87.72122 26.96575 -15.20332 -2.061822e-12 8.644845e-13 16.751 -18.04167 10.72969 9.889394 5.149281 -19.74188 -3.864344 -92.98418 26.24727 21.62933 -2.395195e-12 -2.919817e-12 -16.97671 0.4990684 12.02754 13.53894
29.48534 103.5508 273.9024 0.632789 -4.89627 3.185551 3.548927 -7.322488 4.062859 -3.966156e-13 26.57782 3.250723e-14 -4.818201 -6.813448 -4.00477 -4.101882 0.2776932 -11.70139 -5.268837e-13 22.66866 -1.351675e-12 -3.043956 -13.56221 18.15988 -1.463107 -0.9137126 4.930834 0.5338399 10.14199 -6.168295 1.706783 22.41577 6.026149 3.000667 -19.99024 7.366527 2.310747 -19.0092 11.09698 87.81051 27.3131 -16.73962 -2.099251e-13 -1.707156e-13 14.98354 -17.03853 10.59082 9.068184 5.367221 -20.22772 -3.953653 -91.08743 26.47848 19.41855 7.895302e-14 -1.258279e-13 -18.58414 1.134758 12.27342 12.68627
29.90211 103.5766 278.7221 0.5415312 -4.419756 3.285623 3.64152 -11.61216 3.90625 1.463293e-11 25.87625 7.668786e-13 -5.030431 -5.957112 -4.281464 -4.439376 4.240498 -12.23452 3.163781e-11 22.22901 3.934844e-11 -2.754425 -14.63898 17.59797 -1.53166 -0.9873776 4.358828 0.836982 9.94542 -6.621031 1.648614 22.18103 6.204794 3.072219 -20.16263 7.488283 2.478705 -18.13282 10.94356 87.83941 27.63581 -18.17873 1.520891e-12 -1.207783e-12 13.29309 -16.07412 10.43897 8.282436 5.570199 -20.67346 -4.034462 -89.20607 26.634 17.27082 2.496592e-12 2.459163e-12 -20.09624 1.742781 12.48922 11.86347
30.22537 103.5889 283.422 0.46301 -3.993599 3.443992 3.721768 -15.47832 3.775845 2.810876e-11 25.26116 1.594597e-12 -5.220994 -5.189593 -4.530299 -4.717676 7.809394 -12.71251 6.080009e-11 21.84727 7.61169e-11 -2.502421 -15.61996 17.10728 -1.594909 -1.053722 3.846885 1.109071 9.772822 -7.031423 1.597305 21.98352 6.368965 3.139873 -20.3299 7.603368 2.634125 -17.35587 10.8115 87.94482 27.93054 -19.50567 3.054057e-12 -2.185668e-12 11.78066 -15.21941 10.29745 7.584093 5.755843 -21.08756 -4.107855 -87.57799 26.72818 15.35043 4.728051e-12 4.727095e-12 -21.46887 2.293308 12.68439 11.12835
30.46346 103.5934 287.9937 0.3886158 -3.576706 3.656257 3.779748 -19.10051 3.644033 4.076095e-11 24.59872 2.548997e-12 -5.38191 -4.444976 -4.749254 -4.947349 11.17195 -13.12265 8.852837e-11 21.41694 1.109329e-10 -2.270055 -16.50445 16.59064 -1.650656 -1.11276 3.348958 1.360588 9.577246 -7.39754 1.5481 21.72735 6.504328 3.189613 -20.42608 7.686029 2.769533 -16.56567 10.64875 87.75044 28.18923 -20.64565 4.476202e-12 -3.146598e-12 10.30842 -14.36042 10.12484 6.895647 5.915542 -21.41465 -4.166504 -85.73338 26.73896 13.40817 6.874579e-12 6.816771e-12 -22.70496 2.815156 12.82356 10.39423
30.63776 103.5877 292.4621 0.3301929 -3.236467 3.9137 3.825418 -22.07358 3.540913 5.110615e-11 24.06447 3.443796e-12 -5.513472 -3.836167 -4.928652 -5.121475 13.93018 -13.46141 1.114191e-10 21.07173 1.395832e-10 -2.085125 -17.23651 16.17506 -1.69726 -1.161155 2.942236 1.566211 9.419162 -7.699192 1.508445 21.52483 6.617109 3.232114 -20.51161 7.756773 2.883426 -15.92425 10.51856 87.63541 28.40619 -21.59841 5.625035e-12 -3.962304e-12 9.106134 -13.66399 9.979311 6.336722 6.048145 -21.68995 -4.214981 -84.26107 26.71235 11.82473 8.666832e-12 8.493176e-12 -23.72497 3.244802 12.93742 9.795343
30.77431 103.5722 296.8649 0.292644 -2.998698 4.20442 3.865824 -24.24534 3.477686 5.86056e-11 23.72745 4.129634e-12 -5.617347 -3.406594 -5.066002 -5.244004 15.93392 -13.72914 1.280719e-10 20.86445 1.604017e-10 -1.954796 -17.79511 15.9097 -1.734042 -1.197912 2.65638 1.717198 9.322942 -7.929954 1.480809 21.42073 6.710537 3.271979 -20.61133 7.824287 2.974252 -15.49452 10.44622 87.74886 28.57339 -22.36551 6.449395e-12 -4.568497e-12 8.26209 -13.19339 9.888648 5.951823 6.153716 -21.92884 -4.255465 -83.38888 26.6986 10.75002 9.988114e-12 9.685239e-12 -24.50081 3.557758 13.04156 9.383881
30.91017 103.5441 301.2737 0.2881534 -2.922017 4.512568 3.921085 -25.3332 3.488197 6.219848e-11 23.76916 4.355612e-12 -5.704436 -3.252019 -5.162963 -5.317767 16.89349 -13.94355 1.358035e-10 20.93816 1.701735e-10 -1.896607 -18.16512 15.92441 -1.762476 -1.222622 2.557723 1.798232 9.353129 -8.088404 1.47096 21.54206 6.801733 3.326775 -20.80871 7.920705 3.046745 -15.43214 10.50174 88.56541 28.68144 -23.02125 6.841618e-12 -4.855563e-12 7.974433 -13.10409 9.920378 5.846732 6.241065 -22.19779 -4.297005 -83.73988 26.7976 10.54197 1.063425e-11 1.023074e-11 -25.0112 3.707669 13.18624 9.282742
31.08237 103.505 305.7328 0.3174195 -2.991996 4.819301 3.958645 -25.1372 3.54207 6.133629e-11 24.04595 4.13508e-12 -5.73668 -3.361811 -5.184009 -5.325791 16.661 -14.01307 1.335622e-10 21.16465 1.675112e-10 -1.915241 -18.21995 16.12069 -1.770764 -1.226782 2.635648 1.791213 9.453853 -8.117906 1.477869 21.75451 6.84536 3.364087 -20.97224 7.987992 3.070352 -15.64972 10.61609 89.44157 28.6925 -23.26914 6.747239e-12 -4.775183e-12 8.20875 -13.31779 10.01999 5.98406 6.271863 -22.35093 -4.318392 -84.74118 26.92326 11.02832 1.04884e-11 1.007303e-11 -25.0837 3.670639 13.28614 9.443194
31.32824 103.4556 310.2879 0.3827172 -3.212466 5.105859 3.975979 -23.62495 3.639034 5.589548e-11 24.56654 3.495761e-12 -5.71311 -3.743532 -5.127683 -5.26815 15.20566 -13.93522 1.211592e-10 21.55011 1.521395e-10 -2.014155 -17.95347 16.5047 -1.758557 -1.209956 2.895202 1.693658 9.627971 -8.015479 1.502227 22.06266 6.840644 3.383689 -21.10306 8.026046 3.04548 -16.15644 10.79227 90.38796 28.6131 -23.10263 6.150527e-12 -4.322426e-12 8.979987 -13.84518 10.18779 6.37241 6.245169 -22.38726 -4.319693 -86.42421 27.05391 12.23182 9.530772e-12 9.193471e-12 -24.70886 3.441285 13.34036 9.873791
31.68372 103.3985 314.9569 0.4833826 -3.56767 5.351402 3.937788 -20.60966 3.751568 4.533879e-11 25.18492 2.576568e-12 -5.593915 -4.383567 -4.95745 -5.112252 12.39167 -13.62119 9.780581e-11 21.96478 1.229011e-10 -2.204014 -17.24429 16.97758 -1.714701 -1.163444 3.323939 1.486976 9.817771 -7.724895 1.543996 22.3312 6.742218 3.352619 -21.0701 7.976573 2.942595 -16.86255 10.95929 90.77043 28.42221 -22.23239 4.982707e-12 -3.48152e-12 10.24846 -14.6065 10.36174 6.97344 6.123311 -22.16213 -4.279542 -88.21103 27.07741 13.96217 7.684868e-12 7.502484e-12 -23.71867 3.000026 13.2592 10.52184
32.16667 103.3416 319.7331 0.6026131 -3.988588 5.542087 3.847489 -16.63566 3.862017 3.15641e-11 25.76702 1.631949e-12 -5.394362 -5.15934 -4.69893 -4.863991 8.732168 -13.11809 6.785989e-11 22.31489 8.519082e-11 -2.454354 -16.21217 17.44099 -1.646491 -1.094535 3.839667 1.207077 9.979231 -7.293533 1.595672 22.49307 6.562936 3.273109 -20.86348 7.84209 2.776902 -17.62455 11.07569 90.45237 28.14455 -20.79139 3.440427e-12 -2.432368e-12 11.77083 -15.44921 10.49743 7.669603 5.924566 -21.70047 -4.201747 -89.69358 26.97203 15.86348 5.322723e-12 5.26609e-12 -22.27884 2.430359 13.04348 11.25688
32.78538 103.2889 324.6314 0.7320001 -4.458024 5.671761 3.746593 -12.24045 3.997032 1.625825e-11 26.42896 7.607002e-13 -5.172577 -6.0217 -4.412168 -4.558872 4.681802 -12.5637 3.491481e-11 22.71739 4.357061e-11 -2.740698 -15.08168 17.9705 -1.572661 -1.018187 4.413818 0.8963269 10.16234 -6.818955 1.653891 22.6869 6.368052 3.188847 -20.64744 7.699259 2.597656 -18.48089 11.2107 90.18725 27.83361 -19.23062 1.703068e-12 -1.320275e-12 13.46626 -16.39648 10.6424 8.449839 5.707609 -21.20299 -4.115902 -91.40527 26.811 17.98325 2.770458e-12 2.717264e-12 -20.69679 1.803572 12.80511 12.07606
33.52828 103.2491 329.6076 0.8500329 -4.883099 5.738259 3.60619 -7.794281 4.103437 9.363194e-13 26.85179 8.698817e-14 -4.901565 -6.821391 -4.08408 -4.184082 0.6383632 -11.89696 2.307884e-12 22.91643 2.233989e-12 -3.028515 -13.83381 18.34051 -1.487161 -0.9326332 4.94229 0.5748082 10.25242 -6.288283 1.708258 22.67939 6.118965 3.064562 -20.25556 7.482748 2.380971 -19.16818 11.2358 89.0624 27.44844 -17.34526 -5.733941e-14 -2.628972e-13 15.02303 -17.18172 10.69348 9.134147 5.447382 -20.52529 -4.000664 -92.20557 26.55829 19.72807 2.921442e-13 1.041925e-13 -18.95351 1.185424 12.44919 12.77536
